# xmcd
#
# Track frame offsets:
#	150
#	54035
#	83792
#	116788
#	141492
#	167681
#	191491
#	213368
#
# Disc length: 3458 seconds
#
# Revision: 1
# Processed by: cddbd v1.5.1PL2 Copyright (c) Steve Scherf et al.
# Submitted via: audiograbber 1.80
#
DISCID=6b0d8008
DTITLE=a - a
DYEAR=1900
DGENRE=
TTITLE0=Диск с данными [CD-ROM)
TTITLE1=1
TTITLE2=2
TTITLE3=3
TTITLE4=4
TTITLE5=5
TTITLE6=6
TTITLE7=7
EXTD=
EXTT0=
EXTT1=
EXTT2=
EXTT3=
EXTT4=
EXTT5=
EXTT6=
EXTT7=
PLAYORDER=
